<svg xmlns="http://www.w3.org/2000/svg" xmlns:xlink="http://www.w3.org/1999/xlink" width="1500" zoomAndPan="magnify" viewBox="0 0 1125 374.999991" height="500" preserveAspectRatio="xMidYMid meet" version="1.0"><defs><g/></defs><path fill="#0a4f91" d="M 389.34375 148.203125 C 394.082031 143.4375 398.277344 138.234375 401.921875 132.59375 C 405.570312 126.949219 408.59375 120.988281 410.992188 114.714844 L 410.992188 114.648438 C 413.238281 108.507812 414.851562 102.207031 415.828125 95.738281 L 417.792969 83.761719 L 405.960938 86.316406 C 401.15625 87.296875 396.460938 88.648438 391.875 90.378906 C 387.289062 92.109375 382.867188 94.191406 378.613281 96.628906 C 374.359375 99.066406 370.328125 101.828125 366.515625 104.910156 C 362.703125 107.992188 359.160156 111.359375 355.886719 115.007812 C 359.402344 116.898438 362.761719 119.027344 365.96875 121.402344 C 369.171875 123.777344 372.191406 126.367188 375.023438 129.179688 C 377.855469 131.988281 380.472656 134.984375 382.871094 138.171875 C 385.269531 141.359375 387.429688 144.703125 389.34375 148.203125 Z M 389.34375 148.203125 " fill-opacity="1" fill-rule="nonzero"/><path fill="#0a4f91" d="M 316.90625 105.226562 C 324.960938 105.230469 332.84375 106.386719 340.558594 108.703125 C 340.554688 101.933594 339.835938 95.238281 338.414062 88.621094 C 336.988281 82.003906 334.886719 75.609375 332.109375 69.433594 L 332.109375 69.371094 C 329.359375 63.4375 326.046875 57.839844 322.167969 52.574219 L 315.109375 42.78125 L 308.527344 52.976562 C 305.0625 58.265625 302.144531 63.839844 299.769531 69.699219 C 297.375 75.914062 295.640625 82.308594 294.574219 88.882812 C 293.507812 95.457031 293.125 102.070312 293.433594 108.722656 C 301.085938 106.417969 308.910156 105.25 316.90625 105.226562 Z M 316.90625 105.226562 " fill-opacity="1" fill-rule="nonzero"/><path fill="#0a4f91" d="M 451.21875 178.835938 C 447.15625 176.144531 442.90625 173.789062 438.46875 171.773438 C 434.027344 169.761719 429.457031 168.109375 424.757812 166.828125 C 420.054688 165.542969 415.28125 164.640625 410.433594 164.117188 C 405.585938 163.597656 400.730469 163.464844 395.863281 163.71875 C 397.023438 167.535156 397.90625 171.414062 398.503906 175.359375 C 399.101562 179.300781 399.410156 183.265625 399.433594 187.253906 C 399.453125 191.242188 399.183594 195.210938 398.625 199.160156 C 398.070312 203.109375 397.230469 207 396.105469 210.824219 C 402.761719 210.789062 409.339844 210.066406 415.847656 208.65625 C 422.351562 207.25 428.640625 205.1875 434.71875 202.46875 L 434.769531 202.46875 C 440.703125 199.710938 446.300781 196.390625 451.566406 192.507812 L 461.414062 185.441406 Z M 451.21875 178.835938 " fill-opacity="1" fill-rule="nonzero"/><path fill="#0a4f91" d="M 316.90625 270.28125 C 308.878906 270.273438 301.019531 269.121094 293.328125 266.816406 C 293.386719 273.402344 294.121094 279.914062 295.523438 286.351562 C 296.929688 292.785156 298.972656 299.011719 301.664062 305.027344 L 301.664062 305.089844 C 304.410156 311.023438 307.730469 316.625 311.613281 321.886719 L 318.679688 331.730469 L 325.261719 321.527344 C 327.933594 317.515625 330.273438 313.316406 332.277344 308.933594 C 334.285156 304.550781 335.933594 300.039062 337.222656 295.394531 C 338.515625 290.75 339.433594 286.03125 339.976562 281.242188 C 340.519531 276.453125 340.683594 271.652344 340.464844 266.835938 C 332.777344 269.125 324.925781 270.273438 316.90625 270.28125 Z M 316.90625 270.28125 " fill-opacity="1" fill-rule="nonzero"/><path fill="#0a4f91" d="M 412.171875 258.289062 C 409.53125 252.324219 406.3125 246.6875 402.519531 241.378906 C 398.726562 236.070312 394.4375 231.199219 389.652344 226.765625 C 387.765625 230.277344 385.636719 233.636719 383.265625 236.839844 C 380.894531 240.042969 378.308594 243.0625 375.5 245.894531 C 372.695312 248.722656 369.699219 251.339844 366.515625 253.738281 C 363.335938 256.136719 359.996094 258.296875 356.5 260.210938 C 361.203125 264.828125 366.328125 268.914062 371.875 272.472656 C 377.421875 276.03125 383.273438 278.988281 389.429688 281.339844 L 389.492188 281.339844 C 395.632812 283.585938 401.9375 285.199219 408.402344 286.179688 L 420.371094 288.144531 L 417.816406 276.25 C 416.519531 270.078125 414.636719 264.09375 412.171875 258.289062 Z M 412.171875 258.289062 " fill-opacity="1" fill-rule="nonzero"/><path fill="#0a4f91" d="M 244.53125 227.316406 C 239.792969 232.082031 235.601562 237.289062 231.953125 242.929688 C 228.308594 248.574219 225.285156 254.535156 222.886719 260.816406 L 222.886719 260.867188 C 220.632812 267.011719 219.019531 273.316406 218.046875 279.789062 L 216.070312 291.757812 L 227.933594 289.199219 C 234.128906 287.90625 240.140625 286.027344 245.96875 283.558594 C 252.046875 280.867188 257.785156 277.578125 263.183594 273.695312 C 268.582031 269.8125 273.523438 265.417969 278.007812 260.507812 C 274.492188 258.621094 271.132812 256.492188 267.921875 254.117188 C 264.714844 251.746094 261.691406 249.152344 258.859375 246.34375 C 256.027344 243.535156 253.410156 240.535156 251.007812 237.347656 C 248.609375 234.160156 246.449219 230.816406 244.53125 227.316406 Z M 244.53125 227.316406 " fill-opacity="1" fill-rule="nonzero"/><path fill="#0a4f91" d="M 182.65625 196.691406 C 187.949219 200.164062 193.527344 203.089844 199.390625 205.46875 C 205.539062 207.835938 211.863281 209.554688 218.367188 210.621094 C 224.867188 211.6875 231.410156 212.085938 237.992188 211.808594 C 236.828125 207.992188 235.945312 204.113281 235.34375 200.167969 C 234.746094 196.222656 234.433594 192.257812 234.414062 188.269531 C 234.390625 184.277344 234.660156 180.308594 235.214844 176.359375 C 235.773438 172.410156 236.613281 168.519531 237.738281 164.691406 C 231.085938 164.730469 224.507812 165.457031 218.003906 166.863281 C 211.5 168.269531 205.210938 170.332031 199.136719 173.046875 L 199.085938 173.046875 C 193.148438 175.796875 187.550781 179.113281 182.289062 183 L 172.496094 190.097656 Z M 182.65625 196.691406 " fill-opacity="1" fill-rule="nonzero"/><path fill="#0a4f91" d="M 221.703125 117.28125 C 224.347656 123.242188 227.566406 128.875 231.359375 134.183594 C 235.152344 139.488281 239.441406 144.359375 244.226562 148.792969 C 246.113281 145.28125 248.242188 141.925781 250.613281 138.722656 C 252.984375 135.519531 255.570312 132.503906 258.378906 129.671875 C 261.183594 126.84375 264.175781 124.230469 267.359375 121.832031 C 270.542969 119.433594 273.882812 117.273438 277.375 115.359375 C 272.675781 110.742188 267.550781 106.652344 262.007812 103.09375 C 256.460938 99.535156 250.613281 96.582031 244.457031 94.230469 L 244.394531 94.230469 C 238.25 91.980469 231.941406 90.367188 225.472656 89.390625 L 213.515625 87.394531 L 216.070312 99.257812 C 217.359375 105.449219 219.234375 111.457031 221.703125 117.28125 Z M 221.703125 117.28125 " fill-opacity="1" fill-rule="nonzero"/><g fill="#0a4f91" fill-opacity="1"><g transform="translate(514.375809, 194.202518)"><g><path d="M 47.203125 -53 C 46.785156 -56.488281 45.101562 -59.195312 42.15625 -61.125 C 39.21875 -63.0625 35.609375 -64.03125 31.328125 -64.03125 C 26.640625 -64.03125 22.867188 -62.921875 20.015625 -60.703125 C 17.160156 -58.484375 15.734375 -55.679688 15.734375 -52.296875 C 15.734375 -49.773438 16.507812 -47.734375 18.0625 -46.171875 C 19.613281 -44.617188 21.453125 -43.410156 23.578125 -42.546875 C 25.703125 -41.691406 27.640625 -41.035156 29.390625 -40.578125 L 36.578125 -38.640625 C 38.410156 -38.160156 40.457031 -37.492188 42.71875 -36.640625 C 44.988281 -35.785156 47.164062 -34.628906 49.25 -33.171875 C 51.332031 -31.710938 53.050781 -29.84375 54.40625 -27.5625 C 55.757812 -25.289062 56.4375 -22.5 56.4375 -19.1875 C 56.4375 -15.363281 55.441406 -11.910156 53.453125 -8.828125 C 51.460938 -5.742188 48.566406 -3.296875 44.765625 -1.484375 C 40.960938 0.328125 36.34375 1.234375 30.90625 1.234375 C 23.320312 1.234375 17.296875 -0.554688 12.828125 -4.140625 C 8.367188 -7.722656 5.929688 -12.414062 5.515625 -18.21875 L 14.359375 -18.21875 C 14.585938 -15.550781 15.488281 -13.347656 17.0625 -11.609375 C 18.632812 -9.867188 20.632812 -8.578125 23.0625 -7.734375 C 25.488281 -6.898438 28.101562 -6.484375 30.90625 -6.484375 C 34.175781 -6.484375 37.109375 -7.015625 39.703125 -8.078125 C 42.304688 -9.148438 44.367188 -10.644531 45.890625 -12.5625 C 47.410156 -14.488281 48.171875 -16.742188 48.171875 -19.328125 C 48.171875 -21.671875 47.515625 -23.578125 46.203125 -25.046875 C 44.890625 -26.515625 43.160156 -27.707031 41.015625 -28.625 C 38.878906 -29.550781 36.570312 -30.359375 34.09375 -31.046875 L 25.390625 -33.53125 C 19.867188 -35.125 15.5 -37.390625 12.28125 -40.328125 C 9.0625 -43.273438 7.453125 -47.128906 7.453125 -51.890625 C 7.453125 -55.847656 8.523438 -59.300781 10.671875 -62.25 C 12.828125 -65.207031 15.726562 -67.507812 19.375 -69.15625 C 23.019531 -70.800781 27.097656 -71.625 31.609375 -71.625 C 36.160156 -71.625 40.207031 -70.8125 43.75 -69.1875 C 47.289062 -67.570312 50.101562 -65.359375 52.1875 -62.546875 C 54.269531 -59.742188 55.367188 -56.5625 55.484375 -53 Z M 47.203125 -53 "/></g></g></g><g fill="#0a4f91" fill-opacity="1"><g transform="translate(576.338987, 194.202518)"><g><path d="M 28.984375 1.109375 C 24.203125 1.109375 20.007812 -0.03125 16.40625 -2.3125 C 12.800781 -4.59375 9.992188 -7.78125 7.984375 -11.875 C 5.972656 -15.96875 4.96875 -20.75 4.96875 -26.21875 C 4.96875 -31.738281 5.972656 -36.554688 7.984375 -40.671875 C 9.992188 -44.796875 12.800781 -47.992188 16.40625 -50.265625 C 20.007812 -52.546875 24.203125 -53.6875 28.984375 -53.6875 C 33.765625 -53.6875 37.953125 -52.546875 41.546875 -50.265625 C 45.148438 -47.992188 47.957031 -44.796875 49.96875 -40.671875 C 51.988281 -36.554688 53 -31.738281 53 -26.21875 C 53 -20.75 51.988281 -15.96875 49.96875 -11.875 C 47.957031 -7.78125 45.148438 -4.59375 41.546875 -2.3125 C 37.953125 -0.03125 33.765625 1.109375 28.984375 1.109375 Z M 28.984375 -6.203125 C 32.617188 -6.203125 35.609375 -7.132812 37.953125 -9 C 40.296875 -10.863281 42.03125 -13.3125 43.15625 -16.34375 C 44.289062 -19.382812 44.859375 -22.675781 44.859375 -26.21875 C 44.859375 -29.757812 44.289062 -33.0625 43.15625 -36.125 C 42.03125 -39.1875 40.296875 -41.660156 37.953125 -43.546875 C 35.609375 -45.429688 32.617188 -46.375 28.984375 -46.375 C 25.347656 -46.375 22.351562 -45.429688 20 -43.546875 C 17.65625 -41.660156 15.921875 -39.1875 14.796875 -36.125 C 13.671875 -33.0625 13.109375 -29.757812 13.109375 -26.21875 C 13.109375 -22.675781 13.671875 -19.382812 14.796875 -16.34375 C 15.921875 -13.3125 17.65625 -10.863281 20 -9 C 22.351562 -7.132812 25.347656 -6.203125 28.984375 -6.203125 Z M 28.984375 -6.203125 "/></g></g></g><g fill="#0a4f91" fill-opacity="1"><g transform="translate(634.300094, 194.202518)"><g><path d="M 15.59375 -70.65625 L 15.59375 0 L 7.453125 0 L 7.453125 -70.65625 Z M 15.59375 -70.65625 "/></g></g></g><g fill="#0a4f91" fill-opacity="1"><g transform="translate(657.346538, 194.202518)"><g><path d="M 23.046875 1.234375 C 19.691406 1.234375 16.644531 0.597656 13.90625 -0.671875 C 11.164062 -1.953125 8.988281 -3.804688 7.375 -6.234375 C 5.769531 -8.660156 4.96875 -11.597656 4.96875 -15.046875 C 4.96875 -18.078125 5.566406 -20.539062 6.765625 -22.4375 C 7.960938 -24.34375 9.5625 -25.832031 11.5625 -26.90625 C 13.5625 -27.988281 15.773438 -28.800781 18.203125 -29.34375 C 20.628906 -29.882812 23.070312 -30.316406 25.53125 -30.640625 C 28.75 -31.054688 31.363281 -31.367188 33.375 -31.578125 C 35.394531 -31.796875 36.867188 -32.171875 37.796875 -32.703125 C 38.722656 -33.234375 39.1875 -34.15625 39.1875 -35.46875 L 39.1875 -35.75 C 39.1875 -39.144531 38.257812 -41.785156 36.40625 -43.671875 C 34.5625 -45.566406 31.765625 -46.515625 28.015625 -46.515625 C 24.128906 -46.515625 21.082031 -45.660156 18.875 -43.953125 C 16.664062 -42.253906 15.113281 -40.4375 14.21875 -38.5 L 6.484375 -41.265625 C 7.867188 -44.484375 9.710938 -46.992188 12.015625 -48.796875 C 14.328125 -50.609375 16.859375 -51.875 19.609375 -52.59375 C 22.359375 -53.320312 25.066406 -53.6875 27.734375 -53.6875 C 29.441406 -53.6875 31.40625 -53.484375 33.625 -53.078125 C 35.84375 -52.679688 37.992188 -51.859375 40.078125 -50.609375 C 42.160156 -49.367188 43.890625 -47.492188 45.265625 -44.984375 C 46.648438 -42.484375 47.34375 -39.128906 47.34375 -34.921875 L 47.34375 0 L 39.1875 0 L 39.1875 -7.171875 L 38.78125 -7.171875 C 38.226562 -6.023438 37.304688 -4.796875 36.015625 -3.484375 C 34.734375 -2.171875 33.019531 -1.054688 30.875 -0.140625 C 28.738281 0.773438 26.128906 1.234375 23.046875 1.234375 Z M 24.296875 -6.078125 C 27.515625 -6.078125 30.234375 -6.707031 32.453125 -7.96875 C 34.671875 -9.238281 36.347656 -10.875 37.484375 -12.875 C 38.617188 -14.875 39.1875 -16.976562 39.1875 -19.1875 L 39.1875 -26.640625 C 38.84375 -26.222656 38.085938 -25.847656 36.921875 -25.515625 C 35.765625 -25.179688 34.429688 -24.894531 32.921875 -24.65625 C 31.421875 -24.414062 29.960938 -24.207031 28.546875 -24.03125 C 27.128906 -23.851562 25.984375 -23.707031 25.109375 -23.59375 C 22.992188 -23.320312 21.019531 -22.878906 19.1875 -22.265625 C 17.363281 -21.660156 15.894531 -20.753906 14.78125 -19.546875 C 13.664062 -18.335938 13.109375 -16.695312 13.109375 -14.625 C 13.109375 -11.800781 14.160156 -9.671875 16.265625 -8.234375 C 18.367188 -6.796875 21.046875 -6.078125 24.296875 -6.078125 Z M 24.296875 -6.078125 "/></g></g></g><g fill="#0a4f91" fill-opacity="1"><g transform="translate(712.13358, 194.202518)"><g><path d="M 7.453125 0 L 7.453125 -53 L 15.3125 -53 L 15.3125 -44.984375 L 15.875 -44.984375 C 16.8125 -47.609375 18.546875 -49.738281 21.078125 -51.375 C 23.609375 -53.007812 26.472656 -53.828125 29.671875 -53.828125 C 31.140625 -53.828125 32.425781 -53.648438 33.53125 -53.296875 C 34.632812 -52.953125 35.601562 -52.484375 36.4375 -51.890625 L 33.671875 -44.984375 C 33.097656 -45.285156 32.425781 -45.519531 31.65625 -45.6875 C 30.882812 -45.863281 29.992188 -45.953125 28.984375 -45.953125 C 25.117188 -45.953125 21.921875 -44.773438 19.390625 -42.421875 C 16.859375 -40.066406 15.59375 -37.101562 15.59375 -33.53125 L 15.59375 0 Z M 7.453125 0 "/></g></g></g><g fill="#0a4f91" fill-opacity="1"><g transform="translate(749.3943, 194.202518)"><g><path d="M 8.5625 0 L 8.5625 -70.65625 L 16.703125 -70.65625 L 16.703125 -44.578125 L 17.390625 -44.578125 C 17.984375 -45.492188 18.816406 -46.671875 19.890625 -48.109375 C 20.960938 -49.546875 22.503906 -50.832031 24.515625 -51.96875 C 26.523438 -53.113281 29.253906 -53.6875 32.703125 -53.6875 C 37.171875 -53.6875 41.101562 -52.566406 44.5 -50.328125 C 47.90625 -48.097656 50.5625 -44.9375 52.46875 -40.84375 C 54.382812 -36.75 55.34375 -31.921875 55.34375 -26.359375 C 55.34375 -20.742188 54.382812 -15.882812 52.46875 -11.78125 C 50.5625 -7.675781 47.914062 -4.5 44.53125 -2.25 C 41.15625 -0.0078125 37.257812 1.109375 32.84375 1.109375 C 29.4375 1.109375 26.707031 0.539062 24.65625 -0.59375 C 22.613281 -1.738281 21.039062 -3.039062 19.9375 -4.5 C 18.832031 -5.957031 17.984375 -7.171875 17.390625 -8.140625 L 16.421875 -8.140625 L 16.421875 0 Z M 16.5625 -26.5 C 16.5625 -20.5 17.863281 -15.613281 20.46875 -11.84375 C 23.082031 -8.082031 26.835938 -6.203125 31.734375 -6.203125 C 35.140625 -6.203125 37.988281 -7.101562 40.28125 -8.90625 C 42.570312 -10.71875 44.296875 -13.160156 45.453125 -16.234375 C 46.617188 -19.304688 47.203125 -22.726562 47.203125 -26.5 C 47.203125 -30.226562 46.628906 -33.59375 45.484375 -36.59375 C 44.347656 -39.59375 42.632812 -41.972656 40.34375 -43.734375 C 38.0625 -45.492188 35.191406 -46.375 31.734375 -46.375 C 26.773438 -46.375 23.003906 -44.546875 20.421875 -40.890625 C 17.847656 -37.234375 16.5625 -32.4375 16.5625 -26.5 Z M 16.5625 -26.5 "/></g></g></g><g fill="#0a4f91" fill-opacity="1"><g transform="translate(809.701464, 194.202518)"><g><path d="M 15.59375 -70.65625 L 15.59375 0 L 7.453125 0 L 7.453125 -70.65625 Z M 15.59375 -70.65625 "/></g></g></g><g fill="#0a4f91" fill-opacity="1"><g transform="translate(832.747926, 194.202518)"><g><path d="M 40.84375 -21.671875 L 40.84375 -53 L 49 -53 L 49 0 L 40.84375 0 L 40.84375 -8.96875 L 40.296875 -8.96875 C 39.054688 -6.28125 37.125 -4 34.5 -2.125 C 31.875 -0.25 28.5625 0.6875 24.5625 0.6875 C 19.59375 0.6875 15.5 -0.953125 12.28125 -4.234375 C 9.0625 -7.523438 7.453125 -12.554688 7.453125 -19.328125 L 7.453125 -53 L 15.59375 -53 L 15.59375 -19.875 C 15.59375 -16.007812 16.675781 -12.925781 18.84375 -10.625 C 21.019531 -8.320312 23.800781 -7.171875 27.1875 -7.171875 C 29.207031 -7.171875 31.269531 -7.6875 33.375 -8.71875 C 35.476562 -9.757812 37.25 -11.347656 38.6875 -13.484375 C 40.125 -15.628906 40.84375 -18.359375 40.84375 -21.671875 Z M 40.84375 -21.671875 "/></g></g></g><g fill="#0a4f91" fill-opacity="1"><g transform="translate(889.190982, 194.202518)"><g><path d="M 29.671875 1.109375 C 24.566406 1.109375 20.164062 -0.0195312 16.46875 -2.28125 C 12.78125 -4.550781 9.941406 -7.726562 7.953125 -11.8125 C 5.960938 -15.894531 4.96875 -20.648438 4.96875 -26.078125 C 4.96875 -31.503906 5.960938 -36.296875 7.953125 -40.453125 C 9.941406 -44.609375 12.722656 -47.851562 16.296875 -50.1875 C 19.878906 -52.519531 24.0625 -53.6875 28.84375 -53.6875 C 31.601562 -53.6875 34.328125 -53.222656 37.015625 -52.296875 C 39.710938 -51.378906 42.164062 -49.890625 44.375 -47.828125 C 46.582031 -45.773438 48.335938 -43.054688 49.640625 -39.671875 C 50.953125 -36.296875 51.609375 -32.132812 51.609375 -27.1875 L 51.609375 -23.734375 L 13.140625 -23.734375 C 13.328125 -18.078125 14.929688 -13.738281 17.953125 -10.71875 C 20.984375 -7.707031 24.890625 -6.203125 29.671875 -6.203125 C 32.867188 -6.203125 35.617188 -6.890625 37.921875 -8.265625 C 40.222656 -9.648438 41.890625 -11.722656 42.921875 -14.484375 L 50.78125 -12.28125 C 49.539062 -8.28125 47.054688 -5.046875 43.328125 -2.578125 C 39.609375 -0.117188 35.054688 1.109375 29.671875 1.109375 Z M 13.140625 -30.78125 L 43.328125 -30.78125 C 43.328125 -35.257812 42.015625 -38.976562 39.390625 -41.9375 C 36.773438 -44.894531 33.257812 -46.375 28.84375 -46.375 C 25.738281 -46.375 23.046875 -45.644531 20.765625 -44.1875 C 18.492188 -42.738281 16.703125 -40.820312 15.390625 -38.4375 C 14.078125 -36.0625 13.328125 -33.507812 13.140625 -30.78125 Z M 13.140625 -30.78125 "/></g></g></g><g fill="#99eeff" fill-opacity="1"><g transform="translate(549.817153, 263.155688)"><g><path d="M 4.28125 0 L 4.28125 -35.328125 L 16.21875 -35.328125 C 18.988281 -35.328125 21.253906 -34.828125 23.015625 -33.828125 C 24.785156 -32.835938 26.09375 -31.5 26.9375 -29.8125 C 27.789062 -28.125 28.21875 -26.238281 28.21875 -24.15625 C 28.21875 -22.070312 27.796875 -20.175781 26.953125 -18.46875 C 26.109375 -16.769531 24.804688 -15.414062 23.046875 -14.40625 C 21.285156 -13.40625 19.03125 -12.90625 16.28125 -12.90625 L 8.5625 -12.90625 L 8.5625 0 Z M 8.5625 -16.703125 L 16.140625 -16.703125 C 18.984375 -16.703125 21.003906 -17.414062 22.203125 -18.84375 C 23.410156 -20.269531 24.015625 -22.039062 24.015625 -24.15625 C 24.015625 -26.28125 23.410156 -28.039062 22.203125 -29.4375 C 20.992188 -30.832031 18.953125 -31.53125 16.078125 -31.53125 L 8.5625 -31.53125 Z M 8.5625 -16.703125 "/></g></g></g><g fill="#99eeff" fill-opacity="1"><g transform="translate(587.456612, 263.155688)"><g><path d="M 7.796875 -15.9375 L 7.796875 0 L 3.71875 0 L 3.71875 -35.328125 L 7.796875 -35.328125 L 7.796875 -22.359375 L 8.140625 -22.359375 C 8.765625 -23.722656 9.695312 -24.8125 10.9375 -25.625 C 12.1875 -26.4375 13.851562 -26.84375 15.9375 -26.84375 C 18.65625 -26.84375 20.84375 -26.023438 22.5 -24.390625 C 24.15625 -22.753906 24.984375 -20.238281 24.984375 -16.84375 L 24.984375 0 L 20.90625 0 L 20.90625 -16.5625 C 20.90625 -18.664062 20.359375 -20.296875 19.265625 -21.453125 C 18.179688 -22.609375 16.679688 -23.1875 14.765625 -23.1875 C 12.753906 -23.1875 11.085938 -22.554688 9.765625 -21.296875 C 8.453125 -20.035156 7.796875 -18.25 7.796875 -15.9375 Z M 7.796875 -15.9375 "/></g></g></g><g fill="#99eeff" fill-opacity="1"><g transform="translate(622.957402, 263.155688)"><g><path d="M 14.484375 0.546875 C 12.097656 0.546875 10.003906 -0.0195312 8.203125 -1.15625 C 6.398438 -2.289062 4.992188 -3.878906 3.984375 -5.921875 C 2.984375 -7.972656 2.484375 -10.367188 2.484375 -13.109375 C 2.484375 -15.867188 2.984375 -18.273438 3.984375 -20.328125 C 4.992188 -22.390625 6.398438 -23.988281 8.203125 -25.125 C 10.003906 -26.269531 12.097656 -26.84375 14.484375 -26.84375 C 16.878906 -26.84375 18.976562 -26.269531 20.78125 -25.125 C 22.582031 -23.988281 23.984375 -22.390625 24.984375 -20.328125 C 25.992188 -18.273438 26.5 -15.867188 26.5 -13.109375 C 26.5 -10.367188 25.992188 -7.972656 24.984375 -5.921875 C 23.984375 -3.878906 22.582031 -2.289062 20.78125 -1.15625 C 18.976562 -0.0195312 16.878906 0.546875 14.484375 0.546875 Z M 14.484375 -3.109375 C 16.304688 -3.109375 17.800781 -3.570312 18.96875 -4.5 C 20.144531 -5.4375 21.015625 -6.660156 21.578125 -8.171875 C 22.140625 -9.691406 22.421875 -11.335938 22.421875 -13.109375 C 22.421875 -14.878906 22.140625 -16.53125 21.578125 -18.0625 C 21.015625 -19.59375 20.144531 -20.828125 18.96875 -21.765625 C 17.800781 -22.710938 16.304688 -23.1875 14.484375 -23.1875 C 12.671875 -23.1875 11.175781 -22.710938 10 -21.765625 C 8.832031 -20.828125 7.96875 -19.59375 7.40625 -18.0625 C 6.84375 -16.53125 6.5625 -14.878906 6.5625 -13.109375 C 6.5625 -11.335938 6.84375 -9.691406 7.40625 -8.171875 C 7.96875 -6.660156 8.832031 -5.4375 10 -4.5 C 11.175781 -3.570312 12.671875 -3.109375 14.484375 -3.109375 Z M 14.484375 -3.109375 "/></g></g></g><g fill="#99eeff" fill-opacity="1"><g transform="translate(658.73415, 263.155688)"><g><path d="M 15.25 -26.5 L 15.25 -23.046875 L 9.59375 -23.046875 L 9.59375 -7.59375 C 9.59375 -6.4375 9.757812 -5.570312 10.09375 -5 C 10.4375 -4.4375 10.875 -4.0625 11.40625 -3.875 C 11.945312 -3.6875 12.515625 -3.59375 13.109375 -3.59375 C 13.554688 -3.59375 13.921875 -3.617188 14.203125 -3.671875 C 14.492188 -3.722656 14.726562 -3.765625 14.90625 -3.796875 L 15.734375 -0.140625 C 15.453125 -0.0351562 15.0625 0.0664062 14.5625 0.171875 C 14.070312 0.285156 13.453125 0.34375 12.703125 0.34375 C 11.546875 0.34375 10.414062 0.0976562 9.3125 -0.390625 C 8.21875 -0.890625 7.3125 -1.644531 6.59375 -2.65625 C 5.875 -3.664062 5.515625 -4.941406 5.515625 -6.484375 L 5.515625 -23.046875 L 1.515625 -23.046875 L 1.515625 -26.5 L 5.515625 -26.5 L 5.515625 -32.84375 L 9.59375 -32.84375 L 9.59375 -26.5 Z M 15.25 -26.5 "/></g></g></g><g fill="#99eeff" fill-opacity="1"><g transform="translate(683.196636, 263.155688)"><g><path d="M 14.484375 0.546875 C 12.097656 0.546875 10.003906 -0.0195312 8.203125 -1.15625 C 6.398438 -2.289062 4.992188 -3.878906 3.984375 -5.921875 C 2.984375 -7.972656 2.484375 -10.367188 2.484375 -13.109375 C 2.484375 -15.867188 2.984375 -18.273438 3.984375 -20.328125 C 4.992188 -22.390625 6.398438 -23.988281 8.203125 -25.125 C 10.003906 -26.269531 12.097656 -26.84375 14.484375 -26.84375 C 16.878906 -26.84375 18.976562 -26.269531 20.78125 -25.125 C 22.582031 -23.988281 23.984375 -22.390625 24.984375 -20.328125 C 25.992188 -18.273438 26.5 -15.867188 26.5 -13.109375 C 26.5 -10.367188 25.992188 -7.972656 24.984375 -5.921875 C 23.984375 -3.878906 22.582031 -2.289062 20.78125 -1.15625 C 18.976562 -0.0195312 16.878906 0.546875 14.484375 0.546875 Z M 14.484375 -3.109375 C 16.304688 -3.109375 17.800781 -3.570312 18.96875 -4.5 C 20.144531 -5.4375 21.015625 -6.660156 21.578125 -8.171875 C 22.140625 -9.691406 22.421875 -11.335938 22.421875 -13.109375 C 22.421875 -14.878906 22.140625 -16.53125 21.578125 -18.0625 C 21.015625 -19.59375 20.144531 -20.828125 18.96875 -21.765625 C 17.800781 -22.710938 16.304688 -23.1875 14.484375 -23.1875 C 12.671875 -23.1875 11.175781 -22.710938 10 -21.765625 C 8.832031 -20.828125 7.96875 -19.59375 7.40625 -18.0625 C 6.84375 -16.53125 6.5625 -14.878906 6.5625 -13.109375 C 6.5625 -11.335938 6.84375 -9.691406 7.40625 -8.171875 C 7.96875 -6.660156 8.832031 -5.4375 10 -4.5 C 11.175781 -3.570312 12.671875 -3.109375 14.484375 -3.109375 Z M 14.484375 -3.109375 "/></g></g></g><g fill="#99eeff" fill-opacity="1"><g transform="translate(718.973383, 263.155688)"><g><path d="M 25.390625 -26.5 L 15.59375 0 L 11.453125 0 L 1.65625 -26.5 L 6.078125 -26.5 L 13.390625 -5.375 L 13.65625 -5.375 L 20.984375 -26.5 Z M 25.390625 -26.5 "/></g></g></g><g fill="#99eeff" fill-opacity="1"><g transform="translate(752.818441, 263.155688)"><g><path d="M 14.484375 0.546875 C 12.097656 0.546875 10.003906 -0.0195312 8.203125 -1.15625 C 6.398438 -2.289062 4.992188 -3.878906 3.984375 -5.921875 C 2.984375 -7.972656 2.484375 -10.367188 2.484375 -13.109375 C 2.484375 -15.867188 2.984375 -18.273438 3.984375 -20.328125 C 4.992188 -22.390625 6.398438 -23.988281 8.203125 -25.125 C 10.003906 -26.269531 12.097656 -26.84375 14.484375 -26.84375 C 16.878906 -26.84375 18.976562 -26.269531 20.78125 -25.125 C 22.582031 -23.988281 23.984375 -22.390625 24.984375 -20.328125 C 25.992188 -18.273438 26.5 -15.867188 26.5 -13.109375 C 26.5 -10.367188 25.992188 -7.972656 24.984375 -5.921875 C 23.984375 -3.878906 22.582031 -2.289062 20.78125 -1.15625 C 18.976562 -0.0195312 16.878906 0.546875 14.484375 0.546875 Z M 14.484375 -3.109375 C 16.304688 -3.109375 17.800781 -3.570312 18.96875 -4.5 C 20.144531 -5.4375 21.015625 -6.660156 21.578125 -8.171875 C 22.140625 -9.691406 22.421875 -11.335938 22.421875 -13.109375 C 22.421875 -14.878906 22.140625 -16.53125 21.578125 -18.0625 C 21.015625 -19.59375 20.144531 -20.828125 18.96875 -21.765625 C 17.800781 -22.710938 16.304688 -23.1875 14.484375 -23.1875 C 12.671875 -23.1875 11.175781 -22.710938 10 -21.765625 C 8.832031 -20.828125 7.96875 -19.59375 7.40625 -18.0625 C 6.84375 -16.53125 6.5625 -14.878906 6.5625 -13.109375 C 6.5625 -11.335938 6.84375 -9.691406 7.40625 -8.171875 C 7.96875 -6.660156 8.832031 -5.4375 10 -4.5 C 11.175781 -3.570312 12.671875 -3.109375 14.484375 -3.109375 Z M 14.484375 -3.109375 "/></g></g></g><g fill="#99eeff" fill-opacity="1"><g transform="translate(788.595198, 263.155688)"><g><path d="M 7.796875 -35.328125 L 7.796875 0 L 3.71875 0 L 3.71875 -35.328125 Z M 7.796875 -35.328125 "/></g></g></g><g fill="#99eeff" fill-opacity="1"><g transform="translate(806.917646, 263.155688)"><g><path d="M 15.25 -26.5 L 15.25 -23.046875 L 9.59375 -23.046875 L 9.59375 -7.59375 C 9.59375 -6.4375 9.757812 -5.570312 10.09375 -5 C 10.4375 -4.4375 10.875 -4.0625 11.40625 -3.875 C 11.945312 -3.6875 12.515625 -3.59375 13.109375 -3.59375 C 13.554688 -3.59375 13.921875 -3.617188 14.203125 -3.671875 C 14.492188 -3.722656 14.726562 -3.765625 14.90625 -3.796875 L 15.734375 -0.140625 C 15.453125 -0.0351562 15.0625 0.0664062 14.5625 0.171875 C 14.070312 0.285156 13.453125 0.34375 12.703125 0.34375 C 11.546875 0.34375 10.414062 0.0976562 9.3125 -0.390625 C 8.21875 -0.890625 7.3125 -1.644531 6.59375 -2.65625 C 5.875 -3.664062 5.515625 -4.941406 5.515625 -6.484375 L 5.515625 -23.046875 L 1.515625 -23.046875 L 1.515625 -26.5 L 5.515625 -26.5 L 5.515625 -32.84375 L 9.59375 -32.84375 L 9.59375 -26.5 Z M 15.25 -26.5 "/></g></g></g><g fill="#99eeff" fill-opacity="1"><g transform="translate(831.380141, 263.155688)"><g><path d="M 11.53125 0.625 C 9.84375 0.625 8.316406 0.304688 6.953125 -0.328125 C 5.585938 -0.972656 4.5 -1.898438 3.6875 -3.109375 C 2.882812 -4.328125 2.484375 -5.796875 2.484375 -7.515625 C 2.484375 -9.035156 2.78125 -10.269531 3.375 -11.21875 C 3.976562 -12.164062 4.78125 -12.910156 5.78125 -13.453125 C 6.78125 -13.992188 7.882812 -14.398438 9.09375 -14.671875 C 10.3125 -14.941406 11.535156 -15.15625 12.765625 -15.3125 C 14.378906 -15.519531 15.6875 -15.675781 16.6875 -15.78125 C 17.695312 -15.894531 18.429688 -16.082031 18.890625 -16.34375 C 19.359375 -16.613281 19.59375 -17.078125 19.59375 -17.734375 L 19.59375 -17.875 C 19.59375 -19.570312 19.128906 -20.890625 18.203125 -21.828125 C 17.273438 -22.773438 15.875 -23.25 14 -23.25 C 12.0625 -23.25 10.539062 -22.820312 9.4375 -21.96875 C 8.332031 -21.125 7.554688 -20.21875 7.109375 -19.25 L 3.25 -20.625 C 3.9375 -22.238281 4.859375 -23.492188 6.015625 -24.390625 C 7.171875 -25.296875 8.4375 -25.929688 9.8125 -26.296875 C 11.1875 -26.660156 12.539062 -26.84375 13.875 -26.84375 C 14.71875 -26.84375 15.691406 -26.738281 16.796875 -26.53125 C 17.910156 -26.332031 18.988281 -25.921875 20.03125 -25.296875 C 21.070312 -24.679688 21.9375 -23.742188 22.625 -22.484375 C 23.320312 -21.234375 23.671875 -19.554688 23.671875 -17.453125 L 23.671875 0 L 19.59375 0 L 19.59375 -3.59375 L 19.390625 -3.59375 C 19.109375 -3.007812 18.644531 -2.390625 18 -1.734375 C 17.363281 -1.085938 16.507812 -0.53125 15.4375 -0.0625 C 14.363281 0.394531 13.0625 0.625 11.53125 0.625 Z M 12.140625 -3.03125 C 13.753906 -3.03125 15.113281 -3.347656 16.21875 -3.984375 C 17.332031 -4.617188 18.171875 -5.4375 18.734375 -6.4375 C 19.304688 -7.4375 19.59375 -8.488281 19.59375 -9.59375 L 19.59375 -13.3125 C 19.425781 -13.101562 19.050781 -12.914062 18.46875 -12.75 C 17.882812 -12.582031 17.21875 -12.4375 16.46875 -12.3125 C 15.71875 -12.195312 14.988281 -12.097656 14.28125 -12.015625 C 13.570312 -11.929688 13 -11.859375 12.5625 -11.796875 C 11.5 -11.660156 10.507812 -11.4375 9.59375 -11.125 C 8.6875 -10.820312 7.953125 -10.367188 7.390625 -9.765625 C 6.835938 -9.160156 6.5625 -8.34375 6.5625 -7.3125 C 6.5625 -5.894531 7.085938 -4.828125 8.140625 -4.109375 C 9.191406 -3.390625 10.523438 -3.03125 12.140625 -3.03125 Z M 12.140625 -3.03125 "/></g></g></g><g fill="#99eeff" fill-opacity="1"><g transform="translate(865.570134, 263.155688)"><g><path d="M 3.71875 0 L 3.71875 -26.5 L 7.796875 -26.5 L 7.796875 0 Z M 5.796875 -30.90625 C 5.003906 -30.90625 4.320312 -31.175781 3.75 -31.71875 C 3.175781 -32.257812 2.890625 -32.910156 2.890625 -33.671875 C 2.890625 -34.429688 3.175781 -35.082031 3.75 -35.625 C 4.320312 -36.164062 5.003906 -36.4375 5.796875 -36.4375 C 6.585938 -36.4375 7.265625 -36.164062 7.828125 -35.625 C 8.398438 -35.082031 8.6875 -34.429688 8.6875 -33.671875 C 8.6875 -32.910156 8.398438 -32.257812 7.828125 -31.71875 C 7.265625 -31.175781 6.585938 -30.90625 5.796875 -30.90625 Z M 5.796875 -30.90625 "/></g></g></g><g fill="#99eeff" fill-opacity="1"><g transform="translate(883.892582, 263.155688)"><g><path d="M 3.71875 0 L 3.71875 -35.328125 L 7.796875 -35.328125 L 7.796875 -14.703125 L 8.28125 -14.703125 L 19.875 -26.5 L 24.90625 -26.5 L 13.71875 -15.1875 L 25.734375 0 L 20.5625 0 L 10.640625 -12.5625 L 7.796875 -9.921875 L 7.796875 0 Z M 3.71875 0 "/></g></g></g></svg>